<?xml version="1.0" standalone="no"?>
<!DOCTYPE svg PUBLIC "-//W3C//DTD SVG 20010904//EN"
 "http://www.w3.org/TR/2001/REC-SVG-20010904/DTD/svg10.dtd">
<svg version="1.0" xmlns="http://www.w3.org/2000/svg"
 width="650.000000pt" height="442.000000pt" viewBox="0 0 650.000000 442.000000"
 preserveAspectRatio="xMidYMid meet">

<g transform="translate(0.000000,442.000000) scale(0.100000,-0.100000)"
fill="#FFFFFF" stroke="none">
<path d="M2441 3641 l-375 -218 -72 -124 c-39 -68 -128 -222 -197 -341 l-125
-218 126 0 127 1 150 258 150 259 130 75 c72 42 220 127 329 191 l200 116 391
0 391 0 200 -116 c109 -64 258 -149 329 -191 l130 -74 150 -259 150 -259 127
-1 128 0 -46 78 c-26 42 -114 195 -197 340 l-151 263 -91 53 c-49 29 -219 128
-377 219 l-287 167 -458 -1 -458 0 -374 -218z"/>
<path d="M2885 3388 c-27 -17 -151 -88 -274 -159 l-225 -129 -79 -137 c-43
-76 -90 -157 -103 -180 l-25 -43 128 0 128 0 50 91 c28 49 57 96 65 104 8 7
112 70 232 139 l216 126 277 0 277 0 192 -111 c273 -159 255 -145 315 -249 29
-50 59 -94 65 -96 7 -3 64 -3 128 -2 l116 3 -95 165 c-52 91 -102 173 -112
183 -9 9 -137 87 -285 172 l-268 155 -337 -1 -336 -1 -50 -30z"/>
<path d="M1173 2626 l-28 -24 0 -342 0 -342 33 -29 c43 -38 107 -41 149 -5
l28 24 3 328 c2 235 -1 336 -9 356 -24 59 -124 78 -176 34z m101 -52 c14 -13
16 -56 16 -315 0 -188 -4 -308 -10 -320 -12 -21 -40 -25 -58 -7 -17 17 -17
629 0 646 16 16 33 15 52 -4z"/>
<path d="M1255 2560 c3 -5 8 -10 11 -10 2 0 4 5 4 10 0 6 -5 10 -11 10 -5 0
-7 -4 -4 -10z"/>
<path d="M1230 2543 c0 -5 9 -18 20 -28 11 -10 20 -14 20 -8 0 5 -9 18 -20 28
-11 10 -20 14 -20 8z"/>
<path d="M1230 2503 c0 -5 9 -18 20 -28 11 -10 20 -14 20 -8 0 5 -9 18 -20 28
-11 10 -20 14 -20 8z"/>
<path d="M1230 2463 c0 -5 9 -18 20 -28 11 -10 20 -14 20 -8 0 5 -9 18 -20 28
-11 10 -20 14 -20 8z"/>
<path d="M1230 2412 c0 -10 22 -32 32 -32 5 0 3 9 -4 20 -13 20 -28 27 -28 12z"/>
<path d="M1230 2373 c0 -5 9 -18 20 -28 11 -10 20 -14 20 -8 0 5 -9 18 -20 28
-11 10 -20 14 -20 8z"/>
<path d="M1230 2333 c0 -5 9 -18 20 -28 11 -10 20 -14 20 -8 0 5 -9 18 -20 28
-11 10 -20 14 -20 8z"/>
<path d="M1230 2281 c0 -13 29 -35 37 -28 7 8 -15 37 -28 37 -5 0 -9 -4 -9 -9z"/>
<path d="M1230 2243 c0 -5 9 -18 20 -28 11 -10 20 -14 20 -8 0 5 -9 18 -20 28
-11 10 -20 14 -20 8z"/>
<path d="M1230 2203 c0 -5 9 -18 20 -28 11 -10 20 -14 20 -8 0 5 -9 18 -20 28
-11 10 -20 14 -20 8z"/>
<path d="M1230 2151 c0 -13 29 -35 37 -28 7 8 -15 37 -28 37 -5 0 -9 -4 -9 -9z"/>
<path d="M1230 2113 c0 -5 9 -18 20 -28 11 -10 20 -14 20 -8 0 5 -9 18 -20 28
-11 10 -20 14 -20 8z"/>
<path d="M1230 2073 c0 -5 9 -18 20 -28 11 -10 20 -14 20 -8 0 5 -9 18 -20 28
-11 10 -20 14 -20 8z"/>
<path d="M1230 2021 c0 -13 29 -35 37 -28 7 8 -15 37 -28 37 -5 0 -9 -4 -9 -9z"/>
<path d="M1230 1983 c0 -13 29 -38 35 -31 3 3 -4 13 -15 23 -11 10 -20 13 -20
8z"/>
<path d="M3232 2640 c-12 -5 -27 -21 -32 -35 -6 -15 -10 -160 -10 -346 0 -266
3 -325 15 -349 20 -39 43 -50 103 -50 40 0 54 5 75 26 15 14 29 40 32 58 3 17
5 170 3 339 l-3 309 -33 29 c-26 24 -41 29 -80 28 -26 0 -57 -4 -70 -9z m97
-64 c8 -9 11 -104 9 -326 -3 -279 -5 -314 -20 -323 -12 -8 -21 -7 -32 2 -14
12 -16 53 -16 325 0 314 2 336 36 336 6 0 17 -6 23 -14z"/>
<path d="M3310 2560 c0 -5 5 -10 11 -10 5 0 7 5 4 10 -3 6 -8 10 -11 10 -2 0
-4 -4 -4 -10z"/>
<path d="M3295 2530 c10 -11 23 -20 28 -20 6 0 2 9 -8 20 -10 11 -23 20 -28
20 -6 0 -2 -9 8 -20z"/>
<path d="M3300 2485 c13 -14 26 -23 28 -20 7 7 -29 45 -41 45 -6 0 0 -11 13
-25z"/>
<path d="M3280 2463 c0 -12 38 -48 45 -41 3 2 -6 15 -20 28 -14 13 -25 19 -25
13z"/>
<path d="M3300 2395 c13 -14 26 -23 28 -20 7 7 -29 45 -41 45 -6 0 0 -11 13
-25z"/>
<path d="M3300 2355 c13 -14 26 -23 28 -20 7 7 -29 45 -41 45 -6 0 0 -11 13
-25z"/>
<path d="M3280 2333 c0 -12 38 -48 45 -41 3 2 -6 15 -20 28 -14 13 -25 19 -25
13z"/>
<path d="M3295 2270 c10 -11 23 -20 28 -20 6 0 2 9 -8 20 -10 11 -23 20 -28
20 -6 0 -2 -9 8 -20z"/>
<path d="M3300 2225 c13 -14 26 -23 28 -20 7 7 -29 45 -41 45 -6 0 0 -11 13
-25z"/>
<path d="M3290 2193 c0 -13 29 -38 35 -31 3 3 -4 13 -15 23 -11 10 -20 13 -20
8z"/>
<path d="M3295 2140 c10 -11 23 -20 28 -20 6 0 2 9 -8 20 -10 11 -23 20 -28
20 -6 0 -2 -9 8 -20z"/>
<path d="M3300 2095 c13 -14 26 -23 28 -20 7 7 -29 45 -41 45 -6 0 0 -11 13
-25z"/>
<path d="M3280 2073 c0 -12 38 -48 45 -41 3 2 -6 15 -20 28 -14 13 -25 19 -25
13z"/>
<path d="M3280 2033 c0 -12 38 -48 45 -41 3 2 -6 15 -20 28 -14 13 -25 19 -25
13z"/>
<path d="M3295 1970 c10 -11 20 -18 23 -15 7 6 -18 35 -31 35 -5 0 -2 -9 8
-20z"/>
<path d="M5340 2644 c0 -6 16 -25 35 -44 19 -19 35 -29 35 -24 0 6 -16 25 -35
44 -19 19 -35 29 -35 24z"/>
<path d="M720 2250 l0 -390 30 0 30 0 0 175 c0 190 3 200 55 177 22 -10 23
-15 26 -165 4 -168 11 -190 58 -185 18 2 25 8 21 18 -2 8 -7 89 -10 178 -5
157 -6 165 -29 183 l-23 19 26 21 c26 20 26 21 26 165 0 141 -1 146 -25 169
-22 22 -32 25 -105 25 l-80 0 0 -390z m114 320 c26 -9 26 -10 26 -129 0 -129
-9 -155 -54 -149 -20 3 -21 9 -24 132 -3 165 -3 167 52 146z"/>
<path d="M820 2525 c13 -14 26 -23 28 -20 7 7 -29 45 -41 45 -6 0 0 -11 13
-25z"/>
<path d="M810 2491 c12 -23 29 -35 37 -27 7 7 -26 46 -39 46 -5 0 -4 -9 2 -19z"/>
<path d="M800 2463 c0 -5 11 -20 25 -33 14 -13 25 -19 25 -13 0 5 -11 20 -25
33 -14 13 -25 19 -25 13z"/>
<path d="M800 2423 c0 -5 11 -20 25 -33 14 -13 25 -19 25 -13 0 5 -11 20 -25
33 -14 13 -25 19 -25 13z"/>
<path d="M800 2373 c0 -12 38 -48 45 -41 3 2 -6 15 -20 28 -14 13 -25 19 -25
13z"/>
<path d="M800 2332 c0 -12 19 -26 26 -19 2 2 -2 10 -11 17 -9 8 -15 8 -15 2z"/>
<path d="M1540 2611 c0 -28 3 -30 43 -33 l42 -3 3 -357 2 -358 30 0 30 0 2
358 3 357 43 3 c39 3 42 5 42 33 l0 29 -120 0 -120 0 0 -29z"/>
<path d="M1940 2610 c0 -29 2 -30 45 -30 l45 0 0 -360 0 -360 35 0 35 0 2 358
3 357 43 3 c39 3 42 5 42 33 l0 29 -125 0 -125 0 0 -30z"/>
<path d="M2372 2253 l3 -388 80 0 c77 0 80 1 83 24 5 29 -12 41 -60 41 l-38 0
0 145 0 145 38 0 c48 0 65 12 60 41 -3 21 -9 24 -50 27 l-48 3 0 144 0 144 48
3 c43 3 47 5 50 31 l3 27 -85 0 -86 0 2 -387z"/>
<path d="M2740 2249 l0 -390 33 3 32 3 5 285 5 285 27 -278 c15 -153 30 -282
33 -287 4 -6 28 -10 56 -10 l49 0 0 390 0 390 -30 0 -30 0 -1 -272 c0 -150 -4
-264 -8 -253 -4 11 -19 134 -31 273 l-24 252 -58 0 -58 0 0 -391z"/>
<path d="M3622 2253 l3 -388 33 -3 32 -3 0 180 0 181 24 0 c49 0 56 -20 57
-168 1 -175 5 -187 49 -187 27 0 34 4 30 15 -2 8 -7 89 -10 178 -5 157 -6 165
-29 183 l-23 19 26 21 c26 20 26 21 26 165 0 141 -1 146 -25 169 -22 23 -32
25 -110 25 l-85 0 2 -387z m140 303 c4 -6 8 -60 8 -120 0 -119 -10 -146 -57
-146 l-23 0 0 138 c0 76 3 142 6 145 9 9 57 -4 66 -17z"/>
<path d="M3710 2542 c0 -12 39 -46 45 -41 6 7 -24 49 -36 49 -5 0 -9 -4 -9 -8z"/>
<path d="M3710 2503 c0 -12 38 -48 45 -41 3 2 -6 15 -20 28 -14 13 -25 19 -25
13z"/>
<path d="M3710 2463 c0 -12 38 -48 45 -41 3 2 -6 15 -20 28 -14 13 -25 19 -25
13z"/>
<path d="M3710 2419 c0 -19 37 -55 47 -45 4 3 -5 19 -20 34 -20 19 -27 22 -27
11z"/>
<path d="M3710 2373 c0 -5 9 -18 20 -28 11 -10 20 -14 20 -8 0 5 -9 18 -20 28
-11 10 -20 14 -20 8z"/>
<path d="M3710 2331 c0 -5 5 -13 10 -16 6 -3 10 -2 10 4 0 5 -4 13 -10 16 -5
3 -10 2 -10 -4z"/>
<path d="M4052 2253 l3 -388 55 -3 c30 -2 72 2 92 8 59 17 68 45 68 205 0 122
-2 137 -20 155 -11 11 -26 20 -32 20 -7 0 -4 6 7 12 42 22 45 37 45 185 0 139
-1 145 -25 168 -22 23 -32 25 -110 25 l-85 0 2 -387z m138 317 c12 -7 16 -34
18 -117 3 -128 -7 -156 -56 -161 l-32 -3 0 145 0 146 28 0 c15 0 34 -5 42 -10z
m0 -370 c17 -17 20 -33 20 -123 0 -118 -12 -147 -61 -147 l-29 0 0 138 c0 76
3 142 7 145 13 13 43 7 63 -13z"/>
<path d="M4150 2563 c0 -5 9 -18 20 -28 11 -10 20 -14 20 -8 0 5 -9 18 -20 28
-11 10 -20 14 -20 8z"/>
<path d="M4140 2533 c0 -5 11 -20 25 -33 14 -13 25 -19 25 -13 0 5 -11 20 -25
33 -14 13 -25 19 -25 13z"/>
<path d="M4140 2489 c0 -19 37 -55 47 -45 4 3 -5 19 -20 34 -20 19 -27 22 -27
11z"/>
<path d="M4140 2443 c0 -5 11 -20 25 -33 14 -13 25 -19 25 -13 0 5 -11 20 -25
33 -14 13 -25 19 -25 13z"/>
<path d="M4140 2403 c0 -5 11 -20 25 -33 14 -13 25 -19 25 -13 0 5 -11 20 -25
33 -14 13 -25 19 -25 13z"/>
<path d="M4140 2352 c0 -10 21 -32 32 -32 16 0 8 19 -12 30 -11 6 -20 7 -20 2z"/>
<path d="M4170 2190 c0 -5 5 -10 11 -10 5 0 7 5 4 10 -3 6 -8 10 -11 10 -2 0
-4 -4 -4 -10z"/>
<path d="M4140 2183 c0 -5 11 -20 25 -33 14 -13 25 -19 25 -13 0 5 -11 20 -25
33 -14 13 -25 19 -25 13z"/>
<path d="M4140 2143 c0 -5 11 -20 25 -33 14 -13 25 -19 25 -13 0 5 -11 20 -25
33 -14 13 -25 19 -25 13z"/>
<path d="M4140 2103 c0 -5 11 -20 25 -33 14 -13 25 -19 25 -13 0 5 -11 20 -25
33 -14 13 -25 19 -25 13z"/>
<path d="M4140 2053 c0 -5 11 -20 25 -33 14 -13 25 -19 25 -13 0 5 -11 20 -25
33 -14 13 -25 19 -25 13z"/>
<path d="M4140 2013 c0 -5 11 -20 25 -33 14 -13 25 -19 25 -13 0 5 -11 20 -25
33 -14 13 -25 19 -25 13z"/>
<path d="M4140 1962 c0 -12 19 -26 26 -19 2 2 -2 10 -11 17 -9 8 -15 8 -15 2z"/>
<path d="M4480 2249 l0 -390 33 3 32 3 3 388 2 387 -35 0 -35 0 0 -391z"/>
<path d="M4720 2610 c0 -29 2 -30 45 -30 l45 0 2 -357 3 -358 35 0 35 0 3 358
2 357 40 0 c38 0 40 2 40 30 l0 30 -125 0 -125 0 0 -30z"/>
<path d="M5200 2613 c-1 -16 -16 -188 -34 -383 -18 -195 -31 -358 -29 -362 2
-5 17 -8 33 -8 28 0 28 0 35 78 10 125 9 124 58 120 l42 -3 8 -85 c9 -106 11
-110 42 -110 22 0 25 4 25 38 1 45 -50 688 -56 720 -4 20 -10 22 -64 22 -59 0
-60 -1 -60 -27z m84 -278 c9 -105 16 -196 16 -203 0 -7 -16 -12 -41 -12 l-40
0 5 43 c3 23 10 96 16 162 12 141 20 208 25 203 2 -1 10 -89 19 -193z"/>
<path d="M5255 2290 c3 -5 8 -10 11 -10 2 0 4 5 4 10 0 6 -5 10 -11 10 -5 0
-7 -4 -4 -10z"/>
<path d="M5250 2252 c0 -12 19 -26 26 -19 2 2 -2 10 -11 17 -9 8 -15 8 -15 2z"/>
<path d="M5250 2212 c0 -5 7 -15 15 -22 8 -7 15 -8 15 -2 0 5 -7 15 -15 22 -8
7 -15 8 -15 2z"/>
<path d="M5255 2160 c10 -11 20 -18 23 -15 7 6 -18 35 -31 35 -5 0 -2 -9 8
-20z"/>
<path d="M5582 2253 l3 -388 80 0 80 0 0 30 c0 29 -2 30 -47 33 l-48 3 0 355
0 354 -35 0 -35 0 2 -387z"/>
<path d="M1800 2624 c0 -6 16 -25 35 -44 19 -19 35 -29 35 -24 0 6 -16 25 -35
44 -19 19 -35 29 -35 24z"/>
<path d="M2210 2624 c0 -13 58 -69 65 -63 2 3 -11 21 -30 39 -19 19 -35 29
-35 24z"/>
<path d="M2550 2622 c0 -12 59 -66 65 -60 7 7 -43 68 -56 68 -5 0 -9 -4 -9 -8z"/>
<path d="M2876 2615 c4 -8 11 -15 16 -15 6 0 5 6 -2 15 -7 8 -14 15 -16 15 -2
0 -1 -7 2 -15z"/>
<path d="M3000 2624 c0 -13 58 -69 65 -63 2 3 -11 21 -30 39 -19 19 -35 29
-35 24z"/>
<path d="M4590 2595 c18 -19 36 -32 39 -30 6 7 -50 65 -63 65 -5 0 5 -16 24
-35z"/>
<path d="M4990 2624 c0 -13 58 -69 65 -63 2 3 -11 21 -30 39 -19 19 -35 29
-35 24z"/>
<path d="M5700 2595 c18 -19 36 -32 39 -30 6 7 -50 65 -63 65 -5 0 5 -16 24
-35z"/>
<path d="M5349 2583 c16 -31 61 -68 61 -52 0 15 -50 69 -63 69 -4 0 -3 -8 2
-17z"/>
<path d="M1800 2584 c0 -6 16 -25 35 -44 19 -19 35 -29 35 -24 0 6 -16 25 -35
44 -19 19 -35 29 -35 24z"/>
<path d="M2210 2579 c0 -9 14 -28 30 -44 21 -20 30 -24 30 -14 0 9 -13 28 -30
44 -21 20 -30 24 -30 14z"/>
<path d="M3000 2584 c0 -6 16 -25 35 -44 19 -19 35 -29 35 -24 0 6 -16 25 -35
44 -19 19 -35 29 -35 24z"/>
<path d="M4590 2555 c18 -19 36 -32 39 -30 6 7 -50 65 -63 65 -5 0 5 -16 24
-35z"/>
<path d="M5700 2555 c18 -19 36 -32 39 -30 6 7 -50 65 -63 65 -5 0 5 -16 24
-35z"/>
<path d="M950 2574 c0 -6 14 -23 30 -39 17 -16 30 -24 30 -19 0 6 -13 23 -30
39 -16 16 -30 24 -30 19z"/>
<path d="M1380 2561 c10 -19 70 -68 70 -57 0 3 -14 21 -31 41 -34 38 -56 47
-39 16z"/>
<path d="M2580 2545 c18 -19 36 -32 39 -30 6 7 -50 65 -63 65 -5 0 5 -16 24
-35z"/>
<path d="M2880 2570 c0 -5 5 -10 11 -10 5 0 7 5 4 10 -3 6 -8 10 -11 10 -2 0
-4 -4 -4 -10z"/>
<path d="M3430 2574 c0 -6 16 -25 35 -44 19 -19 35 -29 35 -24 0 6 -16 25 -35
44 -19 19 -35 29 -35 24z"/>
<path d="M3860 2574 c0 -6 14 -23 30 -39 17 -16 30 -24 30 -19 0 6 -13 23 -30
39 -16 16 -30 24 -30 19z"/>
<path d="M5020 2545 c18 -19 36 -32 39 -30 6 7 -50 65 -63 65 -5 0 5 -16 24
-35z"/>
<path d="M2480 2563 c0 -10 52 -63 62 -63 12 0 -32 58 -49 64 -7 3 -13 2 -13
-1z"/>
<path d="M2530 2564 c0 -13 58 -69 65 -63 2 3 -11 21 -30 39 -19 19 -35 29
-35 24z"/>
<path d="M1575 2540 c10 -11 23 -20 28 -20 6 0 2 9 -8 20 -10 11 -23 20 -28
20 -6 0 -2 -9 8 -20z"/>
<path d="M1740 2554 c0 -13 58 -69 65 -63 2 3 -11 21 -30 39 -19 19 -35 29
-35 24z"/>
<path d="M1810 2525 c18 -19 36 -32 39 -30 6 7 -50 65 -63 65 -5 0 5 -16 24
-35z"/>
<path d="M1970 2550 c0 -5 9 -14 20 -20 22 -12 27 -1 8 18 -14 14 -28 16 -28
2z"/>
<path d="M2150 2554 c0 -13 58 -69 65 -63 2 3 -11 21 -30 39 -19 19 -35 29
-35 24z"/>
<path d="M2190 2554 c0 -13 58 -69 65 -63 2 3 -11 21 -30 39 -19 19 -35 29
-35 24z"/>
<path d="M4290 2554 c0 -13 58 -69 65 -63 2 3 -11 21 -30 39 -19 19 -35 29
-35 24z"/>
<path d="M4720 2554 c0 -13 58 -69 65 -63 2 3 -11 21 -30 39 -19 19 -35 29
-35 24z"/>
<path d="M4770 2535 c13 -14 26 -23 28 -20 7 7 -29 45 -41 45 -6 0 0 -11 13
-25z"/>
<path d="M4930 2554 c0 -13 58 -69 65 -63 2 3 -11 21 -30 39 -19 19 -35 29
-35 24z"/>
<path d="M4970 2552 c0 -14 59 -66 67 -59 3 4 -6 21 -22 37 -28 30 -45 38 -45
22z"/>
<path d="M1560 2525 c13 -14 26 -25 28 -25 3 0 -5 11 -18 25 -13 14 -26 25
-28 25 -3 0 5 -11 18 -25z"/>
<path d="M1710 2544 c0 -6 16 -25 35 -44 19 -19 35 -29 35 -24 0 6 -16 25 -35
44 -19 19 -35 29 -35 24z"/>
<path d="M1940 2547 c0 -2 15 -16 33 -33 l32 -29 -29 33 c-28 30 -36 37 -36
29z"/>
<path d="M2120 2544 c0 -6 16 -25 35 -44 19 -19 35 -29 35 -24 0 6 -16 25 -35
44 -19 19 -35 29 -35 24z"/>
<path d="M2460 2544 c0 -13 58 -69 65 -63 2 3 -11 21 -30 39 -19 19 -35 29
-35 24z"/>
<path d="M4568 2535 c13 -25 62 -72 62 -59 0 6 -16 26 -36 45 -22 20 -32 26
-26 14z"/>
<path d="M4900 2544 c0 -6 16 -25 35 -44 19 -19 35 -29 35 -24 0 6 -16 25 -35
44 -19 19 -35 29 -35 24z"/>
<path d="M5350 2544 c0 -13 58 -69 65 -63 2 3 -11 21 -30 39 -19 19 -35 29
-35 24z"/>
<path d="M5670 2544 c0 -6 16 -25 35 -44 19 -19 35 -29 35 -24 0 6 -16 25 -35
44 -19 19 -35 29 -35 24z"/>
<path d="M3030 2505 c18 -19 36 -32 39 -30 6 7 -50 65 -63 65 -5 0 5 -16 24
-35z"/>
<path d="M3860 2529 c0 -18 57 -76 66 -67 3 4 -10 24 -30 45 -23 24 -36 32
-36 22z"/>
<path d="M980 2495 c18 -19 36 -32 39 -30 6 7 -50 65 -63 65 -5 0 5 -16 24
-35z"/>
<path d="M1380 2522 c0 -4 16 -23 35 -42 41 -40 46 -31 9 17 -24 31 -44 43
-44 25z"/>
<path d="M2885 2520 c3 -5 8 -10 11 -10 2 0 4 5 4 10 0 6 -5 10 -11 10 -5 0
-7 -4 -4 -10z"/>
<path d="M3465 2490 c21 -22 41 -37 44 -35 6 7 -60 75 -73 75 -6 0 7 -18 29
-40z"/>
<path d="M1710 2504 c0 -6 16 -25 35 -44 19 -19 35 -29 35 -24 0 6 -16 25 -35
44 -19 19 -35 29 -35 24z"/>
<path d="M2460 2504 c0 -6 16 -25 35 -44 19 -19 35 -29 35 -24 0 6 -16 25 -35
44 -19 19 -35 29 -35 24z"/>
<path d="M4320 2475 c18 -19 36 -32 39 -30 6 7 -50 65 -63 65 -5 0 5 -16 24
-35z"/>
<path d="M2120 2492 c0 -11 59 -67 65 -61 7 8 -23 47 -46 59 -10 6 -19 7 -19
2z"/>
<path d="M3000 2494 c0 -6 16 -25 35 -44 19 -19 35 -29 35 -24 0 6 -16 25 -35
44 -19 19 -35 29 -35 24z"/>
<path d="M4590 2465 c18 -19 36 -32 39 -30 6 7 -50 65 -63 65 -5 0 5 -16 24
-35z"/>
<path d="M4930 2465 c18 -19 36 -32 39 -30 6 7 -50 65 -63 65 -5 0 5 -16 24
-35z"/>
<path d="M5380 2465 c18 -19 36 -32 39 -30 6 7 -50 65 -63 65 -5 0 5 -16 24
-35z"/>
<path d="M5700 2465 c18 -19 36 -32 39 -30 6 7 -50 65 -63 65 -5 0 5 -16 24
-35z"/>
<path d="M950 2484 c0 -6 16 -25 35 -44 19 -19 35 -29 35 -24 0 6 -16 25 -35
44 -19 19 -35 29 -35 24z"/>
<path d="M1380 2484 c0 -6 16 -25 35 -44 19 -19 35 -29 35 -24 0 6 -16 25 -35
44 -19 19 -35 29 -35 24z"/>
<path d="M3440 2471 c11 -22 70 -67 70 -54 0 11 -63 73 -73 73 -4 0 -3 -9 3
-19z"/>
<path d="M3860 2484 c0 -13 58 -69 65 -63 2 3 -11 21 -30 39 -19 19 -35 29
-35 24z"/>
<path d="M2460 2459 c0 -19 57 -75 67 -65 4 3 -10 23 -30 44 -24 24 -37 31
-37 21z"/>
<path d="M4290 2464 c0 -6 16 -25 35 -44 19 -19 35 -29 35 -24 0 6 -16 25 -35
44 -19 19 -35 29 -35 24z"/>
<path d="M1710 2452 c0 -4 16 -23 35 -42 23 -22 35 -29 35 -19 0 8 -13 27 -28
42 -29 27 -42 33 -42 19z"/>
<path d="M2120 2454 c0 -6 16 -25 35 -44 19 -19 35 -29 35 -24 0 6 -16 25 -35
44 -19 19 -35 29 -35 24z"/>
<path d="M3000 2454 c0 -6 16 -25 35 -44 19 -19 35 -29 35 -24 0 6 -16 25 -35
44 -19 19 -35 29 -35 24z"/>
<path d="M4576 2438 c25 -31 46 -48 58 -48 5 0 -5 16 -24 35 -37 39 -64 48
-34 13z"/>
<path d="M4900 2454 c0 -13 58 -69 65 -63 2 3 -11 21 -30 39 -19 19 -35 29
-35 24z"/>
<path d="M5380 2425 c18 -19 36 -32 39 -30 6 7 -50 65 -63 65 -5 0 5 -16 24
-35z"/>
<path d="M5670 2452 c0 -14 59 -66 67 -59 3 4 -6 21 -22 37 -28 30 -45 38 -45
22z"/>
<path d="M950 2444 c0 -6 16 -25 35 -44 19 -19 35 -29 35 -24 0 6 -16 25 -35
44 -19 19 -35 29 -35 24z"/>
<path d="M1380 2444 c0 -6 16 -25 35 -44 19 -19 35 -29 35 -24 0 6 -16 25 -35
44 -19 19 -35 29 -35 24z"/>
<path d="M3430 2442 c0 -13 69 -76 75 -70 4 3 -8 22 -25 42 -31 34 -50 45 -50
28z"/>
<path d="M3860 2444 c0 -6 16 -25 35 -44 19 -19 35 -29 35 -24 0 6 -16 25 -35
44 -19 19 -35 29 -35 24z"/>
<path d="M4290 2424 c0 -6 16 -25 35 -44 19 -19 35 -29 35 -24 0 6 -16 25 -35
44 -19 19 -35 29 -35 24z"/>
<path d="M1710 2414 c0 -6 16 -25 35 -44 19 -19 35 -29 35 -24 0 6 -16 25 -35
44 -19 19 -35 29 -35 24z"/>
<path d="M2120 2414 c0 -6 16 -25 35 -44 19 -19 35 -29 35 -24 0 6 -16 25 -35
44 -19 19 -35 29 -35 24z"/>
<path d="M2460 2414 c0 -6 16 -25 35 -44 19 -19 35 -29 35 -24 0 6 -16 25 -35
44 -19 19 -35 29 -35 24z"/>
<path d="M3000 2414 c0 -6 16 -25 35 -44 19 -19 35 -29 35 -24 0 6 -16 25 -35
44 -19 19 -35 29 -35 24z"/>
<path d="M4560 2412 c0 -4 16 -23 35 -42 23 -22 35 -29 35 -19 0 8 -13 27 -28
42 -29 27 -42 33 -42 19z"/>
<path d="M4900 2414 c0 -6 16 -25 35 -44 19 -19 35 -29 35 -24 0 6 -16 25 -35
44 -19 19 -35 29 -35 24z"/>
<path d="M5670 2414 c0 -6 16 -25 35 -44 19 -19 35 -29 35 -24 0 6 -16 25 -35
44 -19 19 -35 29 -35 24z"/>
<path d="M3430 2404 c0 -13 68 -79 75 -73 2 3 -13 23 -35 44 -22 22 -40 35
-40 29z"/>
<path d="M3860 2399 c0 -19 57 -75 67 -65 4 3 -10 23 -30 44 -24 24 -37 31
-37 21z"/>
<path d="M5360 2404 c0 -6 16 -25 35 -44 19 -19 35 -29 35 -24 0 6 -16 25 -35
44 -19 19 -35 29 -35 24z"/>
<path d="M959 2383 c16 -31 61 -68 61 -52 0 15 -50 69 -63 69 -4 0 -3 -8 2
-17z"/>
<path d="M1380 2394 c0 -6 16 -25 35 -44 19 -19 35 -29 35 -24 0 6 -16 25 -35
44 -19 19 -35 29 -35 24z"/>
<path d="M1710 2369 c0 -19 57 -75 67 -65 4 3 -10 23 -30 44 -24 24 -37 31
-37 21z"/>
<path d="M2120 2369 c0 -19 57 -75 67 -65 4 3 -10 23 -30 44 -24 24 -37 31
-37 21z"/>
<path d="M2460 2374 c0 -13 58 -69 65 -63 2 3 -11 21 -30 39 -19 19 -35 29
-35 24z"/>
<path d="M4320 2345 c18 -19 36 -32 39 -30 6 7 -50 65 -63 65 -5 0 5 -16 24
-35z"/>
<path d="M4900 2374 c0 -6 16 -25 35 -44 19 -19 35 -29 35 -24 0 6 -16 25 -35
44 -19 19 -35 29 -35 24z"/>
<path d="M5670 2374 c0 -6 16 -25 35 -44 19 -19 35 -29 35 -24 0 6 -16 25 -35
44 -19 19 -35 29 -35 24z"/>
<path d="M3000 2364 c0 -13 58 -69 65 -63 2 3 -11 21 -30 39 -19 19 -35 29
-35 24z"/>
<path d="M4590 2335 c18 -19 36 -32 39 -30 6 7 -50 65 -63 65 -5 0 5 -16 24
-35z"/>
<path d="M950 2354 c0 -6 16 -25 35 -44 19 -19 35 -29 35 -24 0 6 -16 25 -35
44 -19 19 -35 29 -35 24z"/>
<path d="M1380 2354 c0 -6 16 -25 35 -44 19 -19 35 -29 35 -24 0 6 -16 25 -35
44 -19 19 -35 29 -35 24z"/>
<path d="M3440 2341 c11 -22 70 -67 70 -54 0 11 -63 73 -73 73 -4 0 -3 -9 3
-19z"/>
<path d="M3860 2354 c0 -13 58 -69 65 -63 2 3 -11 21 -30 39 -19 19 -35 29
-35 24z"/>
<path d="M5390 2325 c18 -19 36 -32 39 -30 6 7 -50 65 -63 65 -5 0 5 -16 24
-35z"/>
<path d="M2460 2327 c0 -8 7 -17 15 -21 8 -3 15 -2 15 3 0 5 -7 14 -15 21 -12
10 -15 10 -15 -3z"/>
<path d="M4290 2332 c0 -11 59 -67 64 -61 5 4 -50 69 -59 69 -3 0 -5 -4 -5 -8z"/>
<path d="M1710 2324 c0 -6 16 -25 35 -44 19 -19 35 -29 35 -24 0 6 -16 25 -35
44 -19 19 -35 29 -35 24z"/>
<path d="M2120 2324 c0 -6 16 -25 35 -44 19 -19 35 -29 35 -24 0 6 -16 25 -35
44 -19 19 -35 29 -35 24z"/>
<path d="M3000 2324 c0 -6 16 -25 35 -44 19 -19 35 -29 35 -24 0 6 -16 25 -35
44 -19 19 -35 29 -35 24z"/>
<path d="M4590 2295 c18 -19 36 -32 39 -30 6 7 -50 65 -63 65 -5 0 5 -16 24
-35z"/>
<path d="M4900 2322 c0 -12 59 -66 65 -60 7 7 -43 68 -56 68 -5 0 -9 -4 -9 -8z"/>
<path d="M5690 2300 c24 -34 39 -45 47 -36 7 7 -46 66 -60 66 -4 0 1 -13 13
-30z"/>
<path d="M950 2314 c0 -6 16 -25 35 -44 19 -19 35 -29 35 -24 0 6 -16 25 -35
44 -19 19 -35 29 -35 24z"/>
<path d="M1380 2314 c0 -6 16 -25 35 -44 19 -19 35 -29 35 -24 0 6 -16 25 -35
44 -19 19 -35 29 -35 24z"/>
<path d="M3430 2314 c0 -13 68 -79 75 -73 2 3 -13 23 -35 44 -22 22 -40 35
-40 29z"/>
<path d="M3860 2314 c0 -13 58 -69 65 -63 2 3 -11 21 -30 39 -19 19 -35 29
-35 24z"/>
<path d="M5370 2302 c0 -12 59 -66 65 -60 7 7 -43 68 -56 68 -5 0 -9 -4 -9 -8z"/>
<path d="M4310 2265 c18 -19 36 -32 39 -30 6 7 -50 65 -63 65 -5 0 5 -16 24
-35z"/>
<path d="M940 2284 c0 -6 16 -25 35 -44 19 -19 35 -29 35 -24 0 6 -16 25 -35
44 -19 19 -35 29 -35 24z"/>
<path d="M1710 2284 c0 -6 16 -25 35 -44 19 -19 35 -29 35 -24 0 6 -16 25 -35
44 -19 19 -35 29 -35 24z"/>
<path d="M2120 2284 c0 -6 16 -25 35 -44 19 -19 35 -29 35 -24 0 6 -16 25 -35
44 -19 19 -35 29 -35 24z"/>
<path d="M2550 2282 c0 -12 59 -66 65 -60 7 7 -43 68 -56 68 -5 0 -9 -4 -9 -8z"/>
<path d="M4560 2284 c0 -6 16 -25 35 -44 19 -19 35 -29 35 -24 0 6 -16 25 -35
44 -19 19 -35 29 -35 24z"/>
<path d="M4900 2284 c0 -6 16 -25 35 -44 19 -19 35 -29 35 -24 0 6 -16 25 -35
44 -19 19 -35 29 -35 24z"/>
<path d="M5670 2284 c0 -13 58 -69 65 -63 2 3 -11 21 -30 39 -19 19 -35 29
-35 24z"/>
<path d="M3000 2271 c0 -13 61 -63 68 -56 6 6 -48 65 -60 65 -4 0 -8 -4 -8 -9z"/>
<path d="M3870 2250 c46 -38 62 -38 25 0 -16 17 -36 30 -44 30 -10 0 -3 -11
19 -30z"/>
<path d="M1380 2263 c0 -10 52 -63 62 -63 17 0 7 16 -27 43 -19 15 -35 25 -35
20z"/>
<path d="M3460 2235 c19 -19 38 -35 44 -35 5 0 -5 16 -24 35 -19 19 -38 35
-44 35 -5 0 5 -16 24 -35z"/>
<path d="M4300 2235 c18 -19 36 -32 39 -30 6 7 -50 65 -63 65 -5 0 5 -16 24
-35z"/>
<path d="M5370 2264 c0 -6 16 -25 35 -44 19 -19 35 -29 35 -24 0 6 -16 25 -35
44 -19 19 -35 29 -35 24z"/>
<path d="M928 2245 c12 -25 50 -60 57 -53 3 2 -12 20 -31 39 -23 21 -33 26
-26 14z"/>
<path d="M3850 2225 c19 -19 38 -35 44 -35 5 0 -5 16 -24 35 -19 19 -38 35
-44 35 -5 0 5 -16 24 -35z"/>
<path d="M1710 2244 c0 -6 16 -25 35 -44 19 -19 35 -29 35 -24 0 6 -16 25 -35
44 -19 19 -35 29 -35 24z"/>
<path d="M2120 2234 c0 -13 58 -69 65 -63 2 3 -11 21 -30 39 -19 19 -35 29
-35 24z"/>
<path d="M2580 2205 c18 -19 36 -32 39 -30 6 7 -50 65 -63 65 -5 0 5 -16 24
-35z"/>
<path d="M3000 2232 c0 -12 59 -66 65 -60 7 7 -43 68 -56 68 -5 0 -9 -4 -9 -8z"/>
<path d="M4590 2205 c18 -19 36 -32 39 -30 6 7 -50 65 -63 65 -5 0 5 -16 24
-35z"/>
<path d="M4930 2205 c18 -19 36 -32 39 -30 6 7 -50 65 -63 65 -5 0 5 -16 24
-35z"/>
<path d="M5700 2205 c18 -19 36 -32 39 -30 6 7 -50 65 -63 65 -5 0 5 -16 24
-35z"/>
<path d="M1380 2224 c0 -6 16 -25 35 -44 19 -19 35 -29 35 -24 0 6 -16 25 -35
44 -19 19 -35 29 -35 24z"/>
<path d="M3465 2190 c21 -22 41 -37 44 -35 6 7 -60 75 -73 75 -6 0 7 -18 29
-40z"/>
<path d="M4288 2205 c13 -25 62 -72 62 -59 0 6 -16 26 -36 45 -22 20 -32 26
-26 14z"/>
<path d="M5400 2185 c18 -19 36 -32 39 -30 6 7 -50 65 -63 65 -5 0 5 -16 24
-35z"/>
<path d="M2460 2204 c0 -13 58 -69 65 -63 2 3 -11 21 -30 39 -19 19 -35 29
-35 24z"/>
<path d="M2500 2203 c0 -14 54 -63 69 -63 10 0 3 12 -19 35 -32 33 -50 43 -50
28z"/>
<path d="M2570 2175 c19 -19 38 -35 44 -35 5 0 -5 16 -24 35 -19 19 -38 35
-44 35 -5 0 5 -16 24 -35z"/>
<path d="M815 2180 c10 -11 23 -20 28 -20 6 0 2 9 -8 20 -10 11 -23 20 -28 20
-6 0 -2 -9 8 -20z"/>
<path d="M1710 2192 c0 -14 59 -66 67 -59 3 4 -6 21 -22 37 -28 30 -45 38 -45
22z"/>
<path d="M2120 2194 c0 -13 58 -69 65 -63 2 3 -11 21 -30 39 -19 19 -35 29
-35 24z"/>
<path d="M3000 2194 c0 -6 16 -25 35 -44 19 -19 35 -29 35 -24 0 6 -16 25 -35
44 -19 19 -35 29 -35 24z"/>
<path d="M3725 2180 c10 -11 20 -18 23 -15 7 6 -18 35 -31 35 -5 0 -2 -9 8
-20z"/>
<path d="M4590 2165 c18 -19 36 -32 39 -30 6 7 -50 65 -63 65 -5 0 5 -16 24
-35z"/>
<path d="M4908 2185 c12 -25 50 -60 57 -53 3 2 -12 20 -31 39 -23 21 -33 26
-26 14z"/>
<path d="M5697 2165 c27 -34 43 -44 43 -27 0 10 -53 62 -63 62 -5 0 5 -16 20
-35z"/>
<path d="M950 2184 c0 -6 16 -25 35 -44 19 -19 35 -29 35 -24 0 6 -16 25 -35
44 -19 19 -35 29 -35 24z"/>
<path d="M1380 2184 c0 -6 16 -25 35 -44 19 -19 35 -29 35 -24 0 6 -16 25 -35
44 -19 19 -35 29 -35 24z"/>
<path d="M3439 2173 c13 -25 60 -67 67 -61 3 3 -9 22 -26 42 -34 38 -58 49
-41 19z"/>
<path d="M3860 2184 c0 -6 16 -25 35 -44 19 -19 35 -29 35 -24 0 6 -16 25 -35
44 -19 19 -35 29 -35 24z"/>
<path d="M5380 2174 c0 -6 16 -25 35 -44 19 -19 35 -29 35 -24 0 6 -16 25 -35
44 -19 19 -35 29 -35 24z"/>
<path d="M2460 2164 c0 -6 16 -25 35 -44 19 -19 35 -29 35 -24 0 6 -16 25 -35
44 -19 19 -35 29 -35 24z"/>
<path d="M3710 2163 c0 -5 12 -20 26 -34 24 -21 26 -22 16 -3 -13 25 -42 50
-42 37z"/>
<path d="M4290 2164 c0 -6 16 -25 35 -44 19 -19 35 -29 35 -24 0 6 -16 25 -35
44 -19 19 -35 29 -35 24z"/>
<path d="M820 2135 c13 -14 26 -23 28 -20 7 7 -29 45 -41 45 -6 0 0 -11 13
-25z"/>
<path d="M1710 2154 c0 -6 16 -25 35 -44 19 -19 35 -29 35 -24 0 6 -16 25 -35
44 -19 19 -35 29 -35 24z"/>
<path d="M2120 2154 c0 -6 16 -25 35 -44 19 -19 35 -29 35 -24 0 6 -16 25 -35
44 -19 19 -35 29 -35 24z"/>
<path d="M3000 2154 c0 -6 16 -25 35 -44 19 -19 35 -29 35 -24 0 6 -16 25 -35
44 -19 19 -35 29 -35 24z"/>
<path d="M4569 2143 c16 -31 61 -68 61 -52 0 15 -50 69 -63 69 -4 0 -3 -8 2
-17z"/>
<path d="M4900 2154 c0 -13 58 -69 65 -63 2 3 -11 21 -30 39 -19 19 -35 29
-35 24z"/>
<path d="M5670 2154 c0 -13 58 -69 65 -63 2 3 -11 21 -30 39 -19 19 -35 29
-35 24z"/>
<path d="M3430 2144 c0 -13 68 -79 75 -73 2 3 -13 23 -35 44 -22 22 -40 35
-40 29z"/>
<path d="M3860 2144 c0 -6 16 -25 35 -44 19 -19 35 -29 35 -24 0 6 -16 25 -35
44 -19 19 -35 29 -35 24z"/>
<path d="M980 2105 c18 -19 36 -32 39 -30 6 7 -50 65 -63 65 -5 0 5 -16 24
-35z"/>
<path d="M1380 2134 c0 -6 16 -25 35 -44 19 -19 35 -29 35 -24 0 6 -16 25 -35
44 -19 19 -35 29 -35 24z"/>
<path d="M2460 2118 c0 -18 59 -72 68 -63 3 3 -11 22 -31 43 -26 26 -37 32
-37 20z"/>
<path d="M5380 2124 c0 -6 16 -25 35 -44 19 -19 35 -29 35 -24 0 6 -16 25 -35
44 -19 19 -35 29 -35 24z"/>
<path d="M820 2095 c13 -14 26 -23 28 -20 7 7 -29 45 -41 45 -6 0 0 -11 13
-25z"/>
<path d="M1710 2114 c0 -6 16 -25 35 -44 19 -19 35 -29 35 -24 0 6 -16 25 -35
44 -19 19 -35 29 -35 24z"/>
<path d="M2120 2109 c0 -19 57 -75 67 -65 4 3 -10 23 -30 44 -24 24 -37 31
-37 21z"/>
<path d="M3710 2113 c0 -12 38 -48 45 -41 3 2 -6 15 -20 28 -14 13 -25 19 -25
13z"/>
<path d="M4320 2085 c18 -19 36 -32 39 -30 6 7 -50 65 -63 65 -5 0 5 -16 24
-35z"/>
<path d="M4900 2114 c0 -6 16 -25 35 -44 19 -19 35 -29 35 -24 0 6 -16 25 -35
44 -19 19 -35 29 -35 24z"/>
<path d="M5670 2114 c0 -6 16 -25 35 -44 19 -19 35 -29 35 -24 0 6 -16 25 -35
44 -19 19 -35 29 -35 24z"/>
<path d="M3000 2104 c0 -13 58 -69 65 -63 2 3 -11 21 -30 39 -19 19 -35 29
-35 24z"/>
<path d="M4590 2075 c19 -19 38 -35 44 -35 5 0 -5 16 -24 35 -19 19 -38 35
-44 35 -5 0 5 -16 24 -35z"/>
<path d="M950 2092 c0 -4 16 -23 35 -42 42 -41 46 -28 5 18 -30 32 -40 39 -40
24z"/>
<path d="M1380 2094 c0 -6 16 -25 35 -44 19 -19 35 -29 35 -24 0 6 -16 25 -35
44 -19 19 -35 29 -35 24z"/>
<path d="M3465 2060 c21 -22 41 -37 44 -35 6 7 -60 75 -73 75 -6 0 7 -18 29
-40z"/>
<path d="M3860 2094 c0 -13 58 -69 65 -63 2 3 -11 21 -30 39 -19 19 -35 29
-35 24z"/>
<path d="M800 2073 c0 -12 38 -48 45 -41 3 2 -6 15 -20 28 -14 13 -25 19 -25
13z"/>
<path d="M1710 2069 c0 -8 16 -30 35 -49 23 -22 35 -29 35 -19 0 8 -16 30 -35
49 -23 22 -35 29 -35 19z"/>
<path d="M2460 2074 c0 -13 58 -69 65 -63 2 3 -11 21 -30 39 -19 19 -35 29
-35 24z"/>
<path d="M3710 2073 c0 -12 38 -48 45 -41 3 2 -6 15 -20 28 -14 13 -25 19 -25
13z"/>
<path d="M4290 2073 c0 -10 52 -63 62 -63 5 0 -3 16 -18 35 -24 32 -44 45 -44
28z"/>
<path d="M5410 2045 c19 -19 38 -35 44 -35 5 0 -5 16 -24 35 -19 19 -38 35
-44 35 -5 0 5 -16 24 -35z"/>
<path d="M2120 2064 c0 -6 16 -25 35 -44 19 -19 35 -29 35 -24 0 6 -16 25 -35
44 -19 19 -35 29 -35 24z"/>
<path d="M3000 2064 c0 -6 16 -25 35 -44 19 -19 35 -29 35 -24 0 6 -16 25 -35
44 -19 19 -35 29 -35 24z"/>
<path d="M4590 2035 c18 -19 36 -32 39 -30 6 7 -50 65 -63 65 -5 0 5 -16 24
-35z"/>
<path d="M4900 2062 c0 -14 59 -66 67 -59 3 4 -6 21 -22 37 -28 30 -45 38 -45
22z"/>
<path d="M5690 2040 c24 -34 39 -45 47 -36 7 7 -46 66 -60 66 -4 0 1 -13 13
-30z"/>
<path d="M950 2054 c0 -6 16 -25 35 -44 19 -19 35 -29 35 -24 0 6 -16 25 -35
44 -19 19 -35 29 -35 24z"/>
<path d="M1380 2054 c0 -6 16 -25 35 -44 19 -19 35 -29 35 -24 0 6 -16 25 -35
44 -19 19 -35 29 -35 24z"/>
<path d="M3430 2054 c0 -13 68 -79 75 -73 2 3 -13 23 -35 44 -22 22 -40 35
-40 29z"/>
<path d="M3860 2054 c0 -6 16 -25 35 -44 19 -19 35 -29 35 -24 0 6 -16 25 -35
44 -19 19 -35 29 -35 24z"/>
<path d="M800 2033 c0 -5 11 -20 25 -33 14 -13 25 -19 25 -13 0 5 -11 20 -25
33 -14 13 -25 19 -25 13z"/>
<path d="M2460 2034 c0 -6 16 -25 35 -44 19 -19 35 -29 35 -24 0 6 -16 25 -35
44 -19 19 -35 29 -35 24z"/>
<path d="M3710 2028 c0 -19 36 -52 44 -40 3 5 -6 20 -19 32 -19 18 -25 20 -25
8z"/>
<path d="M4290 2034 c0 -6 16 -25 35 -44 19 -19 35 -29 35 -24 0 6 -16 25 -35
44 -19 19 -35 29 -35 24z"/>
<path d="M5265 2020 c10 -11 20 -18 23 -15 7 6 -18 35 -31 35 -5 0 -2 -9 8
-20z"/>
<path d="M5390 2028 c0 -9 16 -28 35 -42 19 -15 35 -23 35 -18 0 4 -16 23 -35
42 -24 23 -35 29 -35 18z"/>
<path d="M1710 2024 c0 -6 16 -25 35 -44 19 -19 35 -29 35 -24 0 6 -16 25 -35
44 -19 19 -35 29 -35 24z"/>
<path d="M2120 2024 c0 -6 16 -25 35 -44 19 -19 35 -29 35 -24 0 6 -16 25 -35
44 -19 19 -35 29 -35 24z"/>
<path d="M2825 2020 c3 -5 8 -10 11 -10 2 0 4 5 4 10 0 6 -5 10 -11 10 -5 0
-7 -4 -4 -10z"/>
<path d="M3000 2024 c0 -6 16 -25 35 -44 19 -19 35 -29 35 -24 0 6 -16 25 -35
44 -19 19 -35 29 -35 24z"/>
<path d="M4569 2013 c16 -31 61 -68 61 -52 0 15 -50 69 -63 69 -4 0 -3 -8 2
-17z"/>
<path d="M4900 2024 c0 -6 16 -25 35 -44 19 -19 35 -29 35 -24 0 6 -16 25 -35
44 -19 19 -35 29 -35 24z"/>
<path d="M5670 2024 c0 -6 16 -25 35 -44 19 -19 35 -29 35 -24 0 6 -16 25 -35
44 -19 19 -35 29 -35 24z"/>
<path d="M3430 2014 c0 -13 68 -79 75 -73 2 3 -13 23 -35 44 -22 22 -40 35
-40 29z"/>
<path d="M3860 2014 c0 -6 16 -25 35 -44 19 -19 35 -29 35 -24 0 6 -16 25 -35
44 -19 19 -35 29 -35 24z"/>
<path d="M5230 2014 c0 -13 58 -69 65 -63 2 3 -11 21 -30 39 -19 19 -35 29
-35 24z"/>
<path d="M966 1985 c18 -27 54 -52 54 -37 0 10 -53 62 -63 62 -4 0 0 -11 9
-25z"/>
<path d="M1380 2004 c0 -6 16 -25 35 -44 19 -19 35 -29 35 -24 0 6 -16 25 -35
44 -19 19 -35 29 -35 24z"/>
<path d="M2460 1988 c0 -17 40 -52 49 -42 3 2 -7 17 -22 32 -21 21 -27 23 -27
10z"/>
<path d="M800 1982 c0 -12 39 -46 45 -41 6 7 -24 49 -36 49 -5 0 -9 -4 -9 -8z"/>
<path d="M1710 1984 c0 -6 16 -25 35 -44 19 -19 35 -29 35 -24 0 6 -16 25 -35
44 -19 19 -35 29 -35 24z"/>
<path d="M2120 1979 c0 -19 57 -75 67 -65 4 3 -10 23 -30 44 -24 24 -37 31
-37 21z"/>
<path d="M3710 1983 c0 -12 38 -48 45 -41 3 2 -6 15 -20 28 -14 13 -25 19 -25
13z"/>
<path d="M4320 1955 c18 -19 36 -32 39 -30 6 7 -50 65 -63 65 -5 0 5 -16 24
-35z"/>
<path d="M4900 1984 c0 -6 16 -25 35 -44 19 -19 35 -29 35 -24 0 6 -16 25 -35
44 -19 19 -35 29 -35 24z"/>
<path d="M5390 1984 c0 -6 16 -25 35 -44 19 -19 35 -29 35 -24 0 6 -16 25 -35
44 -19 19 -35 29 -35 24z"/>
<path d="M5670 1983 c0 -12 38 -48 45 -41 3 2 -6 15 -20 28 -14 13 -25 19 -25
13z"/>
<path d="M2825 1970 c3 -5 8 -10 11 -10 2 0 4 5 4 10 0 6 -5 10 -11 10 -5 0
-7 -4 -4 -10z"/>
<path d="M3000 1972 c0 -12 59 -66 65 -60 7 7 -43 68 -56 68 -5 0 -9 -4 -9 -8z"/>
<path d="M4590 1945 c18 -19 36 -32 39 -30 6 7 -50 65 -63 65 -5 0 5 -16 24
-35z"/>
<path d="M5230 1974 c0 -13 58 -69 65 -63 2 3 -11 21 -30 39 -19 19 -35 29
-35 24z"/>
<path d="M950 1962 c0 -4 16 -23 35 -42 23 -22 35 -29 35 -19 0 8 -13 27 -28
42 -29 27 -42 33 -42 19z"/>
<path d="M1380 1964 c0 -6 16 -25 35 -44 19 -19 35 -29 35 -24 0 6 -16 25 -35
44 -19 19 -35 29 -35 24z"/>
<path d="M3460 1935 c19 -19 38 -35 44 -35 5 0 -5 16 -24 35 -19 19 -38 35
-44 35 -5 0 5 -16 24 -35z"/>
<path d="M3860 1964 c0 -13 58 -69 65 -63 2 3 -11 21 -30 39 -19 19 -35 29
-35 24z"/>
<path d="M800 1943 c0 -5 11 -20 25 -33 14 -13 25 -19 25 -13 0 5 -11 20 -25
33 -14 13 -25 19 -25 13z"/>
<path d="M3710 1943 c0 -5 11 -20 25 -33 14 -13 25 -19 25 -13 0 5 -11 20 -25
33 -14 13 -25 19 -25 13z"/>
<path d="M4290 1942 c0 -14 59 -66 67 -59 3 4 -6 21 -22 37 -28 30 -45 38 -45
22z"/>
<path d="M1710 1932 c0 -4 16 -23 35 -42 22 -21 35 -28 35 -19 0 7 -16 27 -35
42 -19 15 -35 24 -35 19z"/>
<path d="M2120 1934 c0 -13 58 -69 65 -63 2 3 -11 21 -30 39 -19 19 -35 29
-35 24z"/>
<path d="M2830 1925 c7 -9 15 -13 17 -11 7 7 -7 26 -19 26 -6 0 -6 -6 2 -15z"/>
<path d="M3000 1934 c0 -6 16 -25 35 -44 19 -19 35 -29 35 -24 0 6 -16 25 -35
44 -19 19 -35 29 -35 24z"/>
<path d="M4590 1905 c18 -19 36 -32 39 -30 6 7 -50 65 -63 65 -5 0 5 -16 24
-35z"/>
<path d="M4900 1932 c0 -14 59 -66 67 -59 3 4 -6 21 -22 37 -28 30 -45 38 -45
22z"/>
<path d="M5250 1905 c18 -19 36 -32 39 -30 6 7 -50 65 -63 65 -5 0 5 -16 24
-35z"/>
<path d="M5400 1934 c0 -6 16 -25 35 -44 19 -19 35 -29 35 -24 0 6 -16 25 -35
44 -19 19 -35 29 -35 24z"/>
<path d="M950 1924 c0 -6 16 -25 35 -44 19 -19 35 -29 35 -24 0 6 -16 25 -35
44 -19 19 -35 29 -35 24z"/>
<path d="M1400 1895 c18 -19 36 -32 39 -30 6 7 -50 65 -63 65 -5 0 5 -16 24
-35z"/>
<path d="M2580 1895 c18 -19 36 -32 39 -30 6 7 -50 65 -63 65 -5 0 5 -16 24
-35z"/>
<path d="M3430 1923 c0 -10 52 -63 62 -63 17 0 7 16 -27 43 -19 15 -35 25 -35
20z"/>
<path d="M3860 1924 c0 -6 16 -25 35 -44 19 -19 35 -29 35 -24 0 6 -16 25 -35
44 -19 19 -35 29 -35 24z"/>
<path d="M5790 1895 c18 -19 36 -32 39 -30 6 7 -50 65 -63 65 -5 0 5 -16 24
-35z"/>
<path d="M4280 1914 c0 -13 58 -69 65 -63 2 3 -11 21 -30 39 -19 19 -35 29
-35 24z"/>
<path d="M800 1904 c0 -6 16 -25 35 -44 19 -19 35 -29 35 -24 0 6 -16 25 -35
44 -19 19 -35 29 -35 24z"/>
<path d="M5220 1899 c0 -19 57 -75 67 -65 4 3 -10 23 -30 44 -24 24 -37 31
-37 21z"/>
<path d="M1360 1891 c0 -5 16 -21 35 -35 42 -32 46 -21 7 17 -29 28 -42 33
-42 18z"/>
<path d="M1710 1894 c0 -6 16 -25 35 -44 19 -19 35 -29 35 -24 0 6 -16 25 -35
44 -19 19 -35 29 -35 24z"/>
<path d="M2120 1894 c0 -6 16 -25 35 -44 19 -19 35 -29 35 -24 0 6 -16 25 -35
44 -19 19 -35 29 -35 24z"/>
<path d="M2826 1886 c3 -9 11 -16 16 -16 13 0 5 23 -10 28 -7 2 -10 -2 -6 -12z"/>
<path d="M3000 1894 c0 -6 16 -25 35 -44 19 -19 35 -29 35 -24 0 6 -16 25 -35
44 -19 19 -35 29 -35 24z"/>
<path d="M3420 1894 c0 -6 16 -25 35 -44 19 -19 35 -29 35 -24 0 6 -16 25 -35
44 -19 19 -35 29 -35 24z"/>
<path d="M3740 1865 c18 -19 36 -32 39 -30 6 7 -50 65 -63 65 -5 0 5 -16 24
-35z"/>
<path d="M4569 1883 c16 -31 61 -68 61 -52 0 15 -50 69 -63 69 -4 0 -3 -8 2
-17z"/>
<path d="M4900 1894 c0 -13 58 -69 65 -63 2 3 -11 21 -30 39 -19 19 -35 29
-35 24z"/>
<path d="M2580 1855 c18 -19 36 -32 39 -30 6 7 -50 65 -63 65 -5 0 5 -16 24
-35z"/>
<path d="M4290 1855 c18 -19 36 -32 39 -30 6 7 -50 65 -63 65 -5 0 5 -16 24
-35z"/>
<path d="M5430 1855 c18 -19 36 -32 39 -30 6 7 -50 65 -63 65 -5 0 5 -16 24
-35z"/>
<path d="M5790 1855 c18 -19 36 -32 39 -30 6 7 -50 65 -63 65 -5 0 5 -16 24
-35z"/>
<path d="M1340 1874 c0 -6 16 -25 35 -44 19 -19 35 -29 35 -24 0 6 -16 25 -35
44 -19 19 -35 29 -35 24z"/>
<path d="M3400 1874 c0 -6 16 -25 35 -44 19 -19 35 -29 35 -24 0 6 -16 25 -35
44 -19 19 -35 29 -35 24z"/>
<path d="M4240 1862 c0 -14 59 -66 67 -59 3 4 -6 21 -22 37 -28 30 -45 38 -45
22z"/>
<path d="M830 1825 c18 -19 36 -32 39 -30 6 7 -50 65 -63 65 -5 0 5 -16 24
-35z"/>
<path d="M1320 1854 c0 -6 16 -25 35 -44 19 -19 35 -29 35 -24 0 6 -16 25 -35
44 -19 19 -35 29 -35 24z"/>
<path d="M1710 1854 c0 -6 16 -25 35 -44 19 -19 35 -29 35 -24 0 6 -16 25 -35
44 -19 19 -35 29 -35 24z"/>
<path d="M2120 1849 c0 -19 57 -75 67 -65 4 3 -10 23 -30 44 -24 24 -37 31
-37 21z"/>
<path d="M2830 1849 c0 -19 47 -65 57 -55 4 3 -7 21 -25 39 -22 22 -32 27 -32
16z"/>
<path d="M3370 1853 c0 -14 54 -63 69 -63 10 0 3 12 -19 35 -32 33 -50 43 -50
28z"/>
<path d="M3710 1854 c0 -13 58 -69 65 -63 2 3 -11 21 -30 39 -19 19 -35 29
-35 24z"/>
<path d="M4900 1854 c0 -6 16 -25 35 -44 19 -19 35 -29 35 -24 0 6 -16 25 -35
44 -19 19 -35 29 -35 24z"/>
<path d="M5220 1854 c0 -13 58 -69 65 -63 2 3 -11 21 -30 39 -19 19 -35 29
-35 24z"/>
<path d="M730 1844 c0 -13 58 -69 65 -63 2 3 -11 21 -30 39 -19 19 -35 29 -35
24z"/>
<path d="M770 1844 c0 -13 58 -69 65 -63 2 3 -11 21 -30 39 -19 19 -35 29 -35
24z"/>
<path d="M900 1844 c0 -13 58 -69 65 -63 2 3 -11 21 -30 39 -19 19 -35 29 -35
24z"/>
<path d="M940 1843 c0 -13 54 -63 69 -63 10 0 8 7 -10 26 -26 28 -59 49 -59
37z"/>
<path d="M1009 1816 c19 -20 37 -36 39 -36 10 0 -46 64 -59 68 -8 3 2 -12 20
-32z"/>
<path d="M1206 1829 c10 -11 28 -26 39 -31 14 -8 12 -2 -9 21 -33 34 -61 44
-30 10z"/>
<path d="M1630 1844 c0 -13 58 -69 65 -63 2 3 -11 21 -30 39 -19 19 -35 29
-35 24z"/>
<path d="M1670 1841 c0 -11 62 -61 75 -61 5 0 -6 16 -25 35 -34 35 -50 43 -50
26z"/>
<path d="M2040 1844 c0 -13 58 -69 65 -63 2 3 -11 21 -30 39 -19 19 -35 29
-35 24z"/>
<path d="M2080 1844 c0 -13 58 -69 65 -63 2 3 -11 21 -30 39 -19 19 -35 29
-35 24z"/>
<path d="M2380 1844 c0 -14 53 -64 68 -64 12 0 12 3 2 15 -18 22 -70 58 -70
49z"/>
<path d="M2450 1815 c19 -19 38 -35 44 -35 5 0 -5 16 -24 35 -19 19 -38 35
-44 35 -5 0 5 -16 24 -35z"/>
<path d="M2470 1844 c0 -13 58 -69 65 -63 2 3 -11 21 -30 39 -19 19 -35 29
-35 24z"/>
<path d="M2510 1844 c0 -13 58 -69 65 -63 2 3 -11 21 -30 39 -19 19 -35 29
-35 24z"/>
<path d="M2580 1815 c18 -19 36 -32 39 -30 6 7 -50 65 -63 65 -5 0 5 -16 24
-35z"/>
<path d="M2770 1815 c19 -19 38 -35 44 -35 5 0 -5 16 -24 35 -19 19 -38 35
-44 35 -5 0 5 -16 24 -35z"/>
<path d="M2790 1844 c0 -13 58 -69 65 -63 2 3 -11 21 -30 39 -19 19 -35 29
-35 24z"/>
<path d="M2870 1843 c0 -13 54 -63 69 -63 10 0 8 7 -10 26 -26 28 -59 49 -59
37z"/>
<path d="M2920 1844 c0 -13 58 -69 65 -63 2 3 -11 21 -30 39 -19 19 -35 29
-35 24z"/>
<path d="M2960 1844 c0 -13 58 -69 65 -63 2 3 -11 21 -30 39 -19 19 -35 29
-35 24z"/>
<path d="M3030 1815 c18 -19 36 -32 39 -30 6 7 -50 65 -63 65 -5 0 5 -16 24
-35z"/>
<path d="M3246 1842 c5 -4 22 -18 38 -32 16 -14 26 -18 21 -10 -16 29 -38 50
-54 50 -8 0 -11 -3 -5 -8z"/>
<path d="M3640 1844 c0 -13 58 -69 65 -63 2 3 -11 21 -30 39 -19 19 -35 29
-35 24z"/>
<path d="M3680 1844 c0 -13 58 -69 65 -63 2 3 -11 21 -30 39 -19 19 -35 29
-35 24z"/>
<path d="M3810 1844 c0 -13 58 -69 65 -63 2 3 -11 21 -30 39 -19 19 -35 29
-35 24z"/>
<path d="M3850 1843 c0 -13 54 -63 69 -63 10 0 8 7 -10 26 -26 28 -59 49 -59
37z"/>
<path d="M3899 1833 c5 -11 23 -28 38 -38 l28 -19 -26 34 c-30 39 -57 54 -40
23z"/>
<path d="M4050 1844 c0 -13 58 -69 65 -63 2 3 -11 21 -30 39 -19 19 -35 29
-35 24z"/>
<path d="M4090 1844 c0 -13 58 -69 65 -63 2 3 -11 21 -30 39 -19 19 -35 29
-35 24z"/>
<path d="M4160 1815 c19 -19 38 -35 44 -35 5 0 -5 16 -24 35 -19 19 -38 35
-44 35 -5 0 5 -16 24 -35z"/>
<path d="M4180 1844 c0 -13 58 -69 65 -63 2 3 -11 21 -30 39 -19 19 -35 29
-35 24z"/>
<path d="M4240 1815 c19 -19 38 -35 44 -35 5 0 -5 16 -24 35 -19 19 -38 35
-44 35 -5 0 5 -16 24 -35z"/>
<path d="M4510 1815 c19 -19 38 -35 44 -35 5 0 -5 16 -24 35 -19 19 -38 35
-44 35 -5 0 5 -16 24 -35z"/>
<path d="M4530 1844 c0 -13 58 -69 65 -63 2 3 -11 21 -30 39 -19 19 -35 29
-35 24z"/>
<path d="M4590 1815 c19 -19 38 -35 44 -35 5 0 -5 16 -24 35 -19 19 -38 35
-44 35 -5 0 5 -16 24 -35z"/>
<path d="M4820 1842 c0 -14 58 -64 70 -60 6 2 -7 18 -29 36 -23 18 -41 29 -41
24z"/>
<path d="M4860 1843 c0 -13 54 -63 69 -63 10 0 8 7 -10 26 -26 28 -59 49 -59
37z"/>
<path d="M5170 1815 c19 -19 38 -35 44 -35 5 0 -5 16 -24 35 -19 19 -38 35
-44 35 -5 0 5 -16 24 -35z"/>
<path d="M5190 1844 c0 -13 58 -69 65 -63 2 3 -11 21 -30 39 -19 19 -35 29
-35 24z"/>
<path d="M5320 1844 c0 -13 58 -69 65 -63 2 3 -11 21 -30 39 -19 19 -35 29
-35 24z"/>
<path d="M5360 1844 c0 -13 58 -69 65 -63 2 3 -11 21 -30 39 -19 19 -35 29
-35 24z"/>
<path d="M5400 1844 c0 -13 58 -69 65 -63 2 3 -11 21 -30 39 -19 19 -35 29
-35 24z"/>
<path d="M5590 1843 c0 -13 54 -63 69 -63 10 0 8 7 -10 26 -26 28 -59 49 -59
37z"/>
<path d="M5640 1844 c0 -13 58 -69 65 -63 2 3 -11 21 -30 39 -19 19 -35 29
-35 24z"/>
<path d="M5680 1844 c0 -13 58 -69 65 -63 2 3 -11 21 -30 39 -19 19 -35 29
-35 24z"/>
<path d="M5720 1843 c0 -13 54 -63 69 -63 10 0 8 7 -10 26 -26 28 -59 49 -59
37z"/>
<path d="M5790 1815 c18 -19 36 -32 39 -30 6 7 -50 65 -63 65 -5 0 5 -16 24
-35z"/>
<path d="M1250 1834 c0 -13 58 -69 65 -63 2 3 -11 21 -30 39 -19 19 -35 29
-35 24z"/>
<path d="M1290 1832 c0 -14 59 -66 67 -59 3 4 -6 21 -22 37 -28 30 -45 38 -45
22z"/>
<path d="M3330 1805 c19 -19 38 -35 44 -35 5 0 -5 16 -24 35 -19 19 -38 35
-44 35 -5 0 5 -16 24 -35z"/>
<path d="M3370 1805 c19 -19 38 -35 44 -35 5 0 -5 16 -24 35 -19 19 -38 35
-44 35 -5 0 5 -16 24 -35z"/>
<path d="M1762 1533 c50 -87 139 -241 197 -342 l106 -183 105 -61 c58 -33 228
-131 378 -218 l274 -159 453 0 454 0 273 159 c150 87 320 185 378 219 l105 60
106 183 c58 101 147 255 197 342 l91 157 -127 0 -127 0 -150 -260 -150 -260
-230 -134 c-126 -73 -275 -158 -331 -189 l-100 -57 -389 0 -389 0 -100 57
c-56 31 -204 116 -331 190 l-230 133 -150 260 -150 260 -127 0 -127 0 91 -157z"/>
<path d="M2212 1632 c18 -32 65 -113 103 -180 l70 -121 239 -138 c131 -76 261
-150 289 -165 l50 -28 312 0 c310 0 312 0 356 24 24 13 154 87 289 165 l244
141 102 177 102 178 -116 3 c-64 1 -121 1 -128 -2 -6 -2 -35 -45 -63 -95 -29
-50 -64 -99 -79 -109 -15 -10 -117 -71 -228 -135 l-201 -117 -278 0 -278 0
-201 116 c-111 64 -214 127 -231 139 -16 13 -52 64 -80 114 l-50 91 -128 0
-128 0 33 -58z"/>
</g>
</svg>
